<svg xmlns="http://www.w3.org/2000/svg" width="170" height="57" viewBox="0 0 170 57"><path d="M9.7.664c9.027-.068,8.714,12.6,8.707,12.8s.472,26.593.472,26.593H5.11V17.335c0-2.3-.479-3.872-2.433-3.872H-1.279c-2.976,0-3.749.035-6.2,0s-2.032,2.35-2.032,6.014v20.58H-23.125V-16.9H-9.507s-.148,6.114,0,11.806S-9.288.8-9.507.664C-9.5.635,4.272.705,9.7.664Zm32.789,0V22.45h0c.128,4.69,3.535,3.534,3.535,3.534H53.91c.217-.111,2.6.567,2.6-3.534.014-3.748,0-10.721,0-21.786H70.877s.3,12.507,0,25.32-8.164,13.5-8.295,13.542H35.344c-.256.047-7.052-1.327-7.425-13.542s0-25.32,0-25.32ZM94.828,39.526,80.395,39.02V-16.9H94.828ZM118.637.337c0,.166.084,16.992,0,21.387s2.928,4.261,2.928,4.261h7.6a3.829,3.829,0,0,0,4.078-4.261c-.05-4.532,0-21.059,0-21.059H146.7V19.476s.392,1.695,0,11.3-9.871,9.271-9.871,9.271c-.105.131-22.463-.013-22.468,0s-9.694-.268-9.7-9.271V.337Z" transform="translate(23.125 16.896)" fill="#03f203"/></svg>